<svg width="16" height="11" viewBox="0 0 16 11" fill="none" xmlns="http://www.w3.org/2000/svg">
<path d="M7.51067 6.27457C7.48369 6.23899 7.52884 6.19376 7.56447 6.22067L8.07243 6.60432L7.93443 6.61043L8.00043 6.61132C7.84507 6.61357 7.69079 6.58519 7.5464 6.52781C7.40201 6.47042 7.27034 6.38516 7.15891 6.27688C7.04747 6.16861 6.95846 6.03944 6.89695 5.89676C6.83544 5.75408 6.80265 5.60068 6.80043 5.44532V5.44532C6.80043 5.40717 6.82503 5.37337 6.86133 5.36164L7.65482 5.10525C7.92493 5.01798 8.21688 5.02652 8.48144 5.12944L8.65568 5.19723L7.21319 5.5387C7.0832 5.56947 6.91857 5.51939 6.836 5.41439V5.41439C6.75029 5.30539 6.80544 5.15517 6.85864 5.02713C6.88964 4.95251 6.9275 4.86551 6.96141 4.77494C7.11016 4.37764 7.09062 4.34596 7.29071 4.72003C7.4689 5.05318 7.65071 5.44613 7.70037 5.69036C7.8137 6.24768 6.60645 4.61711 7.15891 4.48206V4.48206C7.29438 4.44592 7.64767 4.24533 7.78343 4.28037C7.91919 4.3154 7.89936 4.18313 8.00043 4.28032L7.14697 4.97408C6.99401 5.09843 6.77906 4.92779 6.86546 4.7506V4.7506C6.88571 4.70908 6.92083 4.6767 6.96386 4.65987L7.87296 4.30436C7.91358 4.28847 7.95681 4.28032 8.00043 4.28032V4.28032C8.31394 4.27604 8.61635 4.39629 8.84131 4.6147C9.06628 4.8331 9.19543 5.13182 9.20043 5.44532C9.20043 5.46732 9.20043 6.61132 8.00043 6.61132L8.07243 6.60432V6.60432C7.99021 6.54199 7.9577 6.43368 7.99199 6.33638L8.3797 5.23616C8.4276 5.10025 8.59905 5.06471 8.65568 5.19723V5.19723C8.69608 5.29176 8.71691 5.39349 8.71691 5.49629C8.71691 5.59909 8.69608 5.70082 8.65568 5.79535C8.61529 5.88988 8.55615 5.97524 8.48186 6.04629C8.32974 6.19412 8.28455 6.60432 8.07243 6.60432C7.86127 6.60432 7.66632 6.42634 7.5145 6.27889C7.51311 6.27755 7.51184 6.27611 7.51067 6.27457V6.27457ZM8.01743 10.8863C3.30643 10.8863 0.611429 6.68032 0.107429 5.83332C0.0371254 5.71574 0 5.58131 0 5.44432C0 5.30733 0.0371254 5.1729 0.107429 5.05532C0.435972 4.50154 0.806685 3.97493 1.21589 3.48003C1.83371 2.73282 2.94596 2.75018 3.65043 3.41632V3.41632L4.90747 4.63722C5.12176 4.84535 5.20872 5.14671 5.20043 5.44532V5.44532C5.20132 5.80794 5.27568 6.16662 5.41902 6.4997C5.56236 6.83279 5.77171 7.13338 6.03443 7.38332C6.57283 7.89616 7.29095 8.1773 8.03443 8.16632V8.16632C8.34268 8.15979 8.65326 8.24642 8.8744 8.46125L9.53843 9.10632L9.59443 9.16132L10.6254 10.2023V10.2023C10.7039 10.2785 10.6771 10.4102 10.5739 10.4466C9.81421 10.715 9.01681 10.8635 8.21043 10.8863H8.01743ZM12.8954 8.00232L11.0936 6.25173C10.8798 6.04404 10.7934 5.74328 10.8004 5.44532V5.44532C10.7899 4.71321 10.489 4.01526 9.9639 3.50499C9.43882 2.99471 8.73254 2.7139 8.00043 2.72432V2.72432C7.69221 2.73085 7.38167 2.64412 7.16068 2.42916L5.27343 0.59332V0.59332C5.23954 0.561287 5.25063 0.50491 5.29432 0.488619C6.09154 0.191396 6.93249 0.0273623 7.78343 0.00331973C12.5654 -0.13668 15.3834 4.19332 15.8924 5.05632C15.9623 5.17404 15.9992 5.30842 15.9992 5.44532C15.9992 5.58222 15.9623 5.7166 15.8924 5.83432C15.4216 6.61709 14.8662 7.34462 14.2368 8.00405C13.8733 8.38495 13.2722 8.37012 12.8954 8.00232V8.00232Z" fill="#3A4750"/>
</svg>
