<svg width="35" height="30" viewBox="0 0 35 30" fill="none" xmlns="http://www.w3.org/2000/svg">
<path d="M20.6023 25.918C21.2358 26.283 21.9865 26.387 22.6955 26.2081C23.4044 26.0293 24.0158 25.5815 24.4003 24.9596C25.3759 25.4742 26.5129 25.5906 27.5725 25.2844C28.6321 24.9783 29.5318 24.2733 30.0826 23.3178L31.1486 21.4714C31.6978 20.5178 31.857 19.3887 31.593 18.3204C31.329 17.252 30.6621 16.3271 29.7319 15.7391C30.0652 15.0905 30.1337 14.3378 29.9229 13.6397C29.7122 12.9416 29.2386 12.3525 28.6021 11.9967C27.9655 11.6409 27.2157 11.5461 26.5107 11.7322C25.8056 11.9184 25.2003 12.371 24.8224 12.9947L23.4359 15.3961L13.6853 9.76664L15.0718 7.36515C15.2667 7.04735 15.3966 6.694 15.454 6.3256C15.5113 5.95721 15.4949 5.58109 15.4057 5.21909C15.3165 4.85708 15.1563 4.51638 14.9344 4.21677C14.7125 3.91716 14.4333 3.6646 14.1131 3.47373C13.7928 3.28286 13.4378 3.15749 13.0687 3.10489C12.6996 3.05229 12.3238 3.07351 11.9629 3.16731C11.6021 3.26112 11.2635 3.42564 10.9667 3.65134C10.67 3.87704 10.421 4.15942 10.2342 4.4821C9.2599 3.97083 8.12564 3.85599 7.06861 4.1616C6.01158 4.4672 5.11361 5.1696 4.56243 6.12192L3.49644 7.96827C2.9479 8.92179 2.78918 10.0504 3.05347 11.1183C3.31776 12.1861 3.98461 13.1104 4.91458 13.698C4.58129 14.3466 4.5128 15.0993 4.72356 15.7974C4.93432 16.4955 5.40788 17.0845 6.04441 17.4404C6.68095 17.7962 7.43076 17.891 8.13583 17.7049C8.84091 17.5187 9.44619 17.0661 9.82411 16.4424L11.2086 14.0444L20.9557 19.6719L19.5692 22.0734C19.1966 22.7204 19.0961 23.4888 19.2897 24.2098C19.4833 24.9309 19.9552 25.5456 20.6018 25.9189L20.6023 25.918ZM30.5553 21.1289L29.4893 22.9753C29.0282 23.7704 28.279 24.3579 27.3968 24.6161C26.5146 24.8743 25.5669 24.7834 24.7498 24.3623L29.3883 16.3282C30.162 16.8256 30.7146 17.6015 30.9319 18.4952C31.1491 19.3889 31.0143 20.3319 30.5553 21.1289ZM25.4078 13.3327C25.5444 13.0838 25.7293 12.8647 25.9517 12.6883C26.174 12.5118 26.4294 12.3816 26.7028 12.3052C26.9761 12.2287 27.262 12.2077 27.5437 12.2432C27.8253 12.2787 28.097 12.3701 28.3428 12.5121C28.5887 12.654 28.8037 12.8436 28.9753 13.0697C29.1468 13.2959 29.2715 13.554 29.342 13.829C29.4125 14.1039 29.4274 14.3902 29.3858 14.671C29.3442 14.9518 29.2469 15.2215 29.0997 15.4642L23.8557 24.547C23.5666 25.0236 23.1023 25.3681 22.5623 25.5065C22.0223 25.6449 21.4496 25.5664 20.9668 25.2877C20.4841 25.0089 20.1297 24.5522 19.9796 24.0154C19.8295 23.4785 19.8956 22.9042 20.1638 22.4155L25.4078 13.3327ZM4.08707 8.30927L5.15306 6.46292C5.6138 5.66691 6.36306 5.07863 7.24565 4.81993C8.12824 4.56123 9.07653 4.65192 9.89408 5.07324L5.25558 13.1073C4.48238 12.6103 3.92985 11.835 3.71234 10.9419C3.49484 10.0488 3.629 9.10621 4.08707 8.30927ZM9.23457 16.1055C8.94546 16.5821 8.48118 16.9266 7.94119 17.065C7.40121 17.2034 6.82849 17.1249 6.34573 16.8462C5.86296 16.5674 5.50857 16.1107 5.35847 15.5739C5.20837 15.037 5.2745 14.4627 5.54271 13.974L10.7867 4.89116C10.9233 4.64231 11.1082 4.42323 11.3305 4.24679C11.5529 4.07035 11.8083 3.9401 12.0817 3.86366C12.355 3.78723 12.6409 3.76616 12.9226 3.80169C13.2042 3.83722 13.4759 3.92863 13.7217 4.07056C13.9676 4.21249 14.1826 4.40209 14.3542 4.62822C14.5257 4.85436 14.6504 5.11248 14.7209 5.38745C14.7914 5.66242 14.8063 5.9487 14.7647 6.22949C14.7231 6.51029 14.6258 6.77995 14.4786 7.02266L9.23457 16.1055ZM11.5527 13.4544L13.3432 10.3532L23.0903 15.9807L21.2998 19.0819L11.5527 13.4544Z" fill="#FFFFFF"/>
</svg>
