<svg width="21" height="18" viewBox="0 0 21 18" fill="none" xmlns="http://www.w3.org/2000/svg">
<path d="M5.93791 12.1198L9.37232 15.5542C9.95811 16.14 10.9079 16.14 11.4936 15.5542L19.1035 7.94432C19.6893 7.35854 19.6893 6.40879 19.1035 5.823L15.6691 2.38859C15.0833 1.8028 14.1336 1.8028 13.5478 2.38859L5.93791 9.99847C5.35212 10.5843 5.35212 11.534 5.93791 12.1198Z" stroke="black"/>
<path d="M5.20223 2.38896L1.76781 5.82337C1.18203 6.40916 1.18203 7.35891 1.76781 7.94469L9.3777 15.5546C9.96348 16.1404 10.9132 16.1404 11.499 15.5546L14.9334 12.1202C15.5192 11.5344 15.5192 10.5846 14.9334 9.99884L7.32355 2.38896C6.73777 1.80317 5.78802 1.80317 5.20223 2.38896Z" stroke="black"/>
</svg>
