<svg width="31" height="27" viewBox="0 0 31 27" fill="none" xmlns="http://www.w3.org/2000/svg">
<path d="M16.7551 26.0605C16.7545 26.0609 16.7538 26.061 16.753 26.061C16.6674 26.061 16.5858 26.061 16.5041 26.049C14.8291 25.901 12.5101 23.605 9.61414 19.217C8.13813 17.021 7.30674 14.4554 7.21415 11.811C7.17596 10.7129 6.80474 9.64247 6.22566 8.70866C5.68965 7.84432 5.2433 6.70547 5.52015 5.53003C5.91115 3.86303 8.14315 3.09803 9.95115 2.75003C10.4555 2.65549 10.9768 2.75719 11.4087 3.03435C11.8405 3.3115 12.1501 3.74316 12.2741 4.24103C12.4623 5.42624 12.4038 6.63456 12.1057 7.7911C11.9721 8.30931 11.8482 8.83679 11.8896 9.37034C11.9129 9.67138 11.9534 9.97074 12.0108 10.2669C12.163 11.0528 12.7624 11.6487 13.4593 12.0427C15.5616 13.2313 18.7708 12.4513 20.4507 10.7162C21.6542 9.47317 23.3047 8.64251 25.5351 9.03503C26.4821 9.14082 27.3785 9.51704 28.1172 10.1187C28.856 10.7204 29.4059 11.5221 29.7011 12.428C30.0335 13.492 30.102 14.6208 29.9008 15.7172C29.6996 16.8135 29.2347 17.8444 28.5462 18.721C26.8213 20.5438 20.1476 26.0589 16.7572 26.06C16.7565 26.06 16.7558 26.0602 16.7551 26.0605ZM10.3212 3.61003C10.3205 3.60939 10.3196 3.60903 10.3187 3.60904C10.2498 3.60978 10.181 3.61647 10.1132 3.62903C9.09415 3.82903 6.68914 4.42103 6.38514 5.73703C5.94414 7.61903 8.05215 9.57103 8.07115 9.59003C8.12672 9.64051 8.16875 9.70413 8.19338 9.77506C8.21802 9.84598 8.22447 9.92197 8.21215 9.99603C8.11922 10.5913 8.08272 11.1939 8.10314 11.796C8.19145 14.2722 8.97197 16.674 10.3561 18.729C12.9791 22.703 15.2562 25.046 16.5832 25.163C19.3902 25.401 26.0891 20.021 27.8921 18.116C28.4623 17.3532 28.8455 16.4673 29.011 15.5294C29.1765 14.5915 29.1197 13.6279 28.8451 12.716C28.5928 11.9678 28.1317 11.3074 27.5161 10.8128C26.9005 10.3182 26.1562 10.0102 25.3711 9.92503C19.9211 8.96503 18.4141 16.808 18.3981 16.886C18.3819 16.9772 18.3377 17.0611 18.2716 17.1261C18.2056 17.191 18.1209 17.2337 18.0294 17.2484C17.938 17.263 17.8442 17.2488 17.7612 17.2077C17.6782 17.1666 17.61 17.1006 17.5661 17.019C15.9421 14.056 11.8471 12.237 11.8081 12.219C11.7034 12.1714 11.62 12.0866 11.5742 11.981C11.1371 10.8737 10.9299 9.68898 10.9651 8.49902C10.9658 8.45661 10.9725 8.41451 10.9851 8.37402C11.4534 7.12255 11.5946 5.77228 11.3952 4.45103C11.3367 4.21081 11.1991 3.99726 11.0044 3.84486C10.8101 3.69275 10.5703 3.6104 10.3236 3.61102C10.3227 3.61102 10.3218 3.61066 10.3212 3.61003Z" fill="#ffffff"/>
<path d="M4.48008 9.8464C4.47948 9.8449 4.47802 9.84392 4.4764 9.84391C4.38453 9.84348 4.29501 9.81468 4.22009 9.76143C4.14445 9.70765 4.08747 9.63161 4.05708 9.54391L3.31108 7.40793C3.2918 7.35284 3.28355 7.29449 3.28684 7.23622C3.29012 7.17795 3.30488 7.12088 3.33023 7.06831C3.35559 7.01574 3.39106 6.96868 3.43462 6.92984C3.47818 6.89099 3.52896 6.86112 3.58408 6.84192L5.73908 6.08491C5.79511 6.06371 5.85481 6.05386 5.91469 6.05594C5.97457 6.05801 6.03343 6.07198 6.08786 6.09701C6.1423 6.12204 6.19122 6.15764 6.23177 6.20175C6.27232 6.24585 6.3037 6.29758 6.32408 6.35392C6.34384 6.41054 6.35199 6.47054 6.34807 6.53038C6.34415 6.59021 6.32825 6.64864 6.30129 6.70219C6.27432 6.75575 6.23685 6.80334 6.19112 6.84211C6.14539 6.88089 6.09232 6.91007 6.03508 6.92791L4.94581 7.30982C4.58788 7.43532 4.39913 7.82691 4.52394 8.18508C4.64925 8.54468 5.04293 8.73398 5.40206 8.60733L6.54308 8.20492C6.59843 8.18522 6.65711 8.17661 6.71579 8.17959C6.77447 8.18258 6.83199 8.19709 6.88506 8.2223C6.93813 8.24751 6.98571 8.28293 7.02509 8.32653C7.06447 8.37014 7.09488 8.42107 7.11458 8.47642C7.13428 8.53177 7.14288 8.59046 7.13989 8.64914C7.13691 8.70781 7.1224 8.76533 7.09718 8.8184C7.07197 8.87147 7.03657 8.91905 6.99297 8.95843C6.94937 8.99781 6.89843 9.02823 6.84308 9.04792L4.62908 9.82892C4.58162 9.8414 4.53284 9.8481 4.48379 9.84888C4.48216 9.84891 4.48068 9.84792 4.48008 9.8464Z" fill="#ffffff"/>
<path d="M11.811 7.28759C11.811 7.2895 11.8095 7.29106 11.8076 7.29105C11.7034 7.29042 11.6027 7.25332 11.5229 7.18616C11.4423 7.11826 11.3884 7.024 11.3706 6.9201C11.3529 6.81619 11.3725 6.70936 11.426 6.61855C11.4796 6.52775 11.5635 6.45884 11.663 6.42405L13.6496 5.72669C14.008 5.60088 14.1969 5.20872 14.0719 4.85004C13.9466 4.49059 13.5536 4.30086 13.1942 4.42639L11.99 4.84705C11.8782 4.88591 11.7556 4.87876 11.6491 4.82719C11.5426 4.77561 11.4609 4.68383 11.422 4.57204C11.3832 4.46025 11.3903 4.33762 11.4419 4.2311C11.4935 4.12458 11.5852 4.0429 11.697 4.00405L13.973 3.20405C14.0848 3.16497 14.2076 3.17175 14.3144 3.22291C14.4212 3.27407 14.5034 3.36543 14.543 3.47704L15.289 5.61605C15.3083 5.67114 15.3166 5.72948 15.3133 5.78776C15.31 5.84603 15.2952 5.90308 15.2699 5.95565C15.2445 6.00822 15.2091 6.05527 15.1655 6.09412C15.122 6.13297 15.0712 6.16284 15.016 6.18204L11.959 7.25205C11.9139 7.27357 11.8645 7.28452 11.8146 7.2841C11.8126 7.28408 11.811 7.28564 11.811 7.28759Z" fill="#ffffff"/>
<path d="M-nan -nanL16.1141 8.48891C15.8872 8.48922 15.6659 8.41866 15.481 8.28706C15.2962 8.15547 15.1571 7.96942 15.0831 7.75491L13.0611 1.93792C12.967 1.66415 12.9839 1.36439 13.1081 1.10291C13.1702 0.973669 13.2575 0.858113 13.3648 0.76299C13.4721 0.667868 13.5973 0.595094 13.7331 0.548917L15.1331 0.0609105C15.2685 0.0136685 15.4119 -0.00642093 15.555 0.00179037C15.6982 0.0100017 15.8383 0.0463572 15.9674 0.10877C16.0965 0.171182 16.212 0.258433 16.3074 0.365529C16.4027 0.472626 16.476 0.597466 16.5231 0.732915L18.5451 6.54992C18.6392 6.82369 18.6223 7.12344 18.4981 7.38492C18.436 7.51416 18.3487 7.62971 18.2414 7.72484C18.1341 7.81996 18.0089 7.89274 17.8731 7.93892L16.4731 8.42692C16.358 8.46859 16.2365 8.48957 16.1141 8.48891L-nan -nanZM-nan -nanL15.4891 0.895917C15.4666 0.896173 15.4443 0.900223 15.4231 0.907911L14.0231 1.39592C13.9985 1.40419 13.9759 1.4173 13.9565 1.43448C13.9371 1.45165 13.9213 1.47254 13.9101 1.49592C13.8983 1.51931 13.8915 1.54491 13.8901 1.57107C13.8887 1.59724 13.8928 1.62341 13.9021 1.64792L15.9241 7.46491C15.942 7.51446 15.9787 7.55497 16.0262 7.57763C16.0738 7.60028 16.1283 7.60326 16.1781 7.58591L17.5781 7.09791C17.6031 7.08976 17.6262 7.0766 17.646 7.05923C17.6658 7.04187 17.6818 7.02065 17.6931 6.99689C17.7045 6.97313 17.7108 6.94732 17.7118 6.92102C17.7129 6.89472 17.7086 6.86849 17.6991 6.84392L15.6771 1.02691C15.663 0.988447 15.6373 0.955252 15.6037 0.931821C15.5701 0.908391 15.5301 0.89586 15.4891 0.895917L-nan -nanZ" fill="#ffffff"/>
<path d="M3.11309 13.029C2.88619 13.0293 2.66486 12.9587 2.48002 12.8271C2.29518 12.6955 2.15607 12.5095 2.0821 12.295L0.0600966 6.47795C-0.034485 6.20449 -0.016882 5.9047 0.109062 5.64419C0.235006 5.38369 0.459029 5.18367 0.732094 5.08795L2.1321 4.59996C2.40503 4.50578 2.70414 4.52362 2.96394 4.64958C3.22373 4.77554 3.423 4.99935 3.51809 5.27196L5.54009 11.089C5.63467 11.3624 5.61707 11.6622 5.49113 11.9227C5.36518 12.1832 5.14116 12.3832 4.8681 12.479L3.4681 12.9669C3.35252 13.0067 3.2313 13.0276 3.10909 13.029H3.11309ZM2.4886 5.43047C2.4883 5.42957 2.48745 5.42896 2.48649 5.42898C2.46452 5.4294 2.44276 5.43344 2.4221 5.44095L1.0221 5.92895C0.997078 5.93711 0.973962 5.95027 0.954185 5.96764C0.934409 5.985 0.918385 6.00622 0.907066 6.02998C0.895747 6.05374 0.889369 6.07955 0.888344 6.10585C0.887318 6.13215 0.891665 6.15838 0.9011 6.18295L2.92309 12C2.93124 12.025 2.94442 12.0481 2.96178 12.0679C2.97915 12.0876 3.00036 12.1037 3.02412 12.115C3.04788 12.1263 3.0737 12.1327 3.1 12.1337C3.1263 12.1347 3.15253 12.1304 3.1771 12.121L4.5771 11.6329C4.60212 11.6248 4.62522 11.6116 4.645 11.5943C4.66477 11.5769 4.68081 11.5557 4.69213 11.5319C4.70345 11.5082 4.70981 11.4824 4.71084 11.4561C4.71186 11.4298 4.70753 11.4035 4.6981 11.379L2.67609 5.56195C2.66185 5.52383 2.63633 5.49097 2.60291 5.46774C2.56993 5.44481 2.53082 5.43236 2.49067 5.43197C2.48973 5.43196 2.4889 5.43136 2.4886 5.43047Z" fill="#ffffff"/>
</svg>
