<svg width="13" height="11" viewBox="0 0 13 11" fill="none" xmlns="http://www.w3.org/2000/svg">
<path d="M11.032 1.29412C11.1014 1.20639 11.1878 1.13356 11.286 1.07996C11.3842 1.02635 11.4922 0.993078 11.6035 0.982121C11.7149 0.971165 11.8273 0.982749 11.9341 1.01618C12.0408 1.04962 12.1398 1.10421 12.225 1.17672C12.3102 1.24922 12.3799 1.33815 12.43 1.43819C12.4801 1.53823 12.5095 1.64733 12.5165 1.75899C12.5235 1.87065 12.5079 1.98257 12.4707 2.08809C12.4335 2.1936 12.3755 2.29054 12.3 2.37312L5.21798 10.7061C5.14612 10.7906 5.05811 10.8599 4.9591 10.91C4.8601 10.96 4.7521 10.9898 4.64144 10.9975C4.53078 11.0052 4.41969 10.9908 4.31469 10.955C4.20969 10.9192 4.11289 10.8628 4.02998 10.7891L0.279982 7.45612C0.114752 7.30932 0.0146046 7.1029 0.0015707 6.88226C-0.0114632 6.66162 0.0636845 6.44485 0.210482 6.27962C0.357279 6.11439 0.563702 6.01424 0.784338 6.00121C1.00497 5.98817 1.22175 6.06332 1.38698 6.21012L4.49998 8.97812L11.032 1.29412Z" fill="black"/>
</svg>
