<svg width="284" height="269" viewBox="0 0 284 269" fill="none" xmlns="http://www.w3.org/2000/svg">
<path d="M22.3508 29.0445C34.6112 18.6543 48.3905 10.1532 63.1463 4.95814C76.1662 0.47147 92.875 -3.89713 104.484 6.49306C128.897 28.218 119.24 72.3763 177.613 44.6298C235.985 16.8833 240.433 35.5383 250.415 55.6103C260.397 75.6823 268.101 121.848 215.696 131.293C192.477 137.551 180.976 161.283 184.339 183.362C186.726 199.42 192.368 232.007 185.099 244.877C173.164 265.894 152.549 283.25 130.307 289.035C94.177 298.599 28.9692 278.291 28.9692 228.465C28.9692 216.304 32.7667 204.497 38.0831 193.871C48.8245 172.972 74.9727 151.72 48.3905 126.571C34.8282 113.819 18.3363 103.547 7.59493 87.6074C-7.70341 64.7017 4.557 44.1575 22.3508 29.0445Z" fill="#FBBC05"/>
<path d="M59.1319 22.5506C59.1319 22.5506 99.0594 -13.5789 126.401 18.8905C153.743 51.4779 201.699 19.2447 215.045 16.0568C228.39 12.8689 271.898 3.18712 280.795 62.2223C289.692 121.257 266.039 134.127 261.591 135.78C257.142 137.433 213.96 149.476 211.03 178.403C208.101 207.331 225.786 273.686 164.159 269.199C102.423 264.831 71.5008 266.838 63.3634 241.925C55.226 217.012 73.0198 207.803 91.0306 167.187C109.15 126.571 88.1011 109.687 75.8407 101.658C63.5804 93.747 13.9964 61.5138 59.1319 22.5506Z" fill="#FBBC05" stroke="#303030" stroke-miterlimit="10" stroke-linecap="round" stroke-linejoin="round"/>
</svg>
